<?xml version="1.0" encoding="utf-8"?>
<!-- Generator: Adobe Illustrator 26.5.2, SVG Export Plug-In . SVG Version: 6.00 Build 0)  -->
<svg version="1.1" id="Layer_1" xmlns="http://www.w3.org/2000/svg" xmlns:xlink="http://www.w3.org/1999/xlink" x="0px" y="0px"
	 viewBox="0 0 120 56" style="enable-background:new 0 0 120 56;" xml:space="preserve">
<style type="text/css">
	.st0{fill:#CE0E2D;}
	.st1{fill-rule:evenodd;clip-rule:evenodd;fill:#D9D8D6;}
	.st2{fill-rule:evenodd;clip-rule:evenodd;fill:#CE0E2D;}
	.st3{fill-rule:evenodd;clip-rule:evenodd;fill:#FFFFFF;}
	.st4{fill:#FFFFFF;}
</style>
<g>
	<path class="st2" d="M1.68,5.62L0,12.69h11.88L2.53,52.01l11.27-0.13l9.09-38.23c0.13-0.56,0.64-0.96,1.22-0.96h42.8l-9.35,39.32
		l11.27-0.13l9.09-38.23c0.13-0.56,0.64-0.96,1.22-0.96h36.09c1.48,0,2.76-1.01,3.1-2.45L120,3.17H4.78
		C3.31,3.17,2.02,4.18,1.68,5.62z"/>
	<path class="st2" d="M49.53,19.64l-0.33,1.38c-0.07,0.31-0.47,0.4-0.67,0.16c-1.93-2.34-4.97-3.66-9.25-3.52
		c-8.11,0.25-15.05,6.31-17.59,17.53c-2.49,10.99,1.77,17.93,10.82,17.65c3.17-0.1,6.34-1.33,9.15-3.39
		c0.33-0.24,0.77,0.05,0.68,0.45l-0.58,2.46l11.27-0.13l8.09-34.02l-9.9,0.11C50.41,18.31,49.71,18.86,49.53,19.64z M45.04,26.96
		l-3.56,14.61c-0.53,2.18-2.25,3.72-4.17,3.74l-1.63,0.01c-1.49,0.01-2.54-1.62-2.12-3.32l3.28-13.45c0.37-1.51,1.57-2.58,2.9-2.58
		h4.67C44.85,25.97,45.16,26.45,45.04,26.96z"/>
	<path class="st2" d="M104.42,21.02c-0.07,0.31-0.47,0.4-0.67,0.16c-1.93-2.34-4.97-3.66-9.25-3.52
		c-8.11,0.25-15.05,6.31-17.59,17.53c-2.49,10.99,1.77,17.93,10.82,17.65c3.17-0.1,6.34-1.33,9.15-3.39
		c0.33-0.24,0.77,0.05,0.68,0.45l-0.58,2.46l11.27-0.13l8.09-34.02l-9.9,0.11c-0.8,0.01-1.49,0.56-1.68,1.34L104.42,21.02z
		 M100.26,26.96L96.7,41.57c-0.53,2.18-2.25,3.72-4.17,3.74l-1.63,0.01c-1.49,0.01-2.54-1.62-2.12-3.32l3.28-13.45
		c0.37-1.51,1.57-2.58,2.9-2.58h4.67C100.08,25.97,100.38,26.45,100.26,26.96z"/>
</g>
</svg>
