<svg width="154" height="40" viewBox="0 0 154 40" fill="none" xmlns="http://www.w3.org/2000/svg">
<path fill-rule="evenodd" clip-rule="evenodd" d="M16.662 28.3181C16.1494 28.809 15.4615 29.2374 15.0496 29.8131C14.7911 30.1746 14.5107 30.5494 14.4012 31.018C14.1208 32.1114 13.8666 33.2226 13.6344 34.3249C13.5731 34.6106 13.5731 34.9006 13.4679 35.1773C13.3628 35.4719 13.2707 35.7932 13.1305 36.0208C12.7231 36.6723 12.022 38.4976 12.5347 39.3009C13.6651 41.0949 15.352 39.0287 15.5404 37.6586C15.6893 36.5831 17.1352 34.1107 17.6523 33.178C17.8188 32.8701 17.8407 32.7897 17.9896 32.4863C18.1342 32.2007 18.3139 31.9329 18.419 31.625C18.511 31.3483 18.6206 31.0716 18.717 30.7949C18.7608 30.6878 18.8265 30.5807 18.8396 30.4646C18.8703 30.2237 18.9448 29.9916 18.9273 29.7551C18.9054 29.4962 18.9098 29.2463 18.8703 28.9919C18.6863 27.9878 17.3061 27.6977 16.662 28.3181Z" fill="#FFA300"/>
<path fill-rule="evenodd" clip-rule="evenodd" d="M21.9067 0.162545C21.5912 0.269651 21.5387 0.314277 21.3853 0.425846C21.2714 0.506176 21.1443 0.657917 21.0567 0.782874C20.4915 1.55939 20.1191 3.96927 20.0577 4.84397C20.0183 5.37057 19.7028 6.7228 19.7992 7.22262C19.9306 7.87865 19.6458 8.39186 19.751 9.06128L19.843 9.71283C19.8693 9.88242 20.049 10.1413 20.1453 10.2751C20.2505 10.4269 20.3425 10.592 20.5528 10.6455C20.7281 10.6902 20.8902 10.6634 21.0742 10.6366C21.1706 10.6277 21.3546 10.5831 21.3941 10.5563C21.4729 10.5206 21.5474 10.4849 21.6219 10.4358C21.7884 10.351 21.8235 10.2796 21.8936 10.1502C21.9286 10.0877 21.99 10.0074 22.0513 9.91813C22.1083 9.83334 22.1959 9.7173 22.2222 9.60126L22.2879 9.27102C22.3624 8.90508 22.4763 8.58823 22.6034 8.12856L22.7261 7.75816C22.9408 7.13784 23.3044 6.44611 23.4578 5.79008L23.6768 5.02249C23.9266 3.91126 24.0712 2.46532 23.9397 1.34517C23.9003 1.01939 23.7557 0.689151 23.5848 0.358907L23.3438 0.184867L23.1292 0.086686C23.0371 0.0375957 22.9057 0.0152716 22.7962 0.00634612C22.6559 -0.0115049 22.5245 0.0108165 22.3755 0.0420558C22.1915 0.0688323 22.082 0.104529 21.9067 0.162545Z" fill="#FFA300"/>
<path fill-rule="evenodd" clip-rule="evenodd" d="M16.2589 12.694L16.5788 12.502C16.7409 12.4083 16.903 12.2968 17.0914 12.2432C17.3105 12.1852 17.5296 12.1004 17.7486 12.0513C18.4935 11.8951 19.2515 11.6229 20.0051 11.5247C20.8201 11.4176 22.0469 11.3194 22.8619 11.5872C23.0503 11.6497 23.1992 11.672 23.3395 11.8014C23.4183 11.8817 23.5147 12.0915 23.5804 12.0022C23.7382 11.7568 23.9222 11.4756 24.0931 11.248C24.2026 11.1052 24.3165 10.9624 24.4261 10.8553C24.5838 10.6991 24.7415 10.5295 24.8993 10.3689C25.1928 10.0788 25.574 9.73515 25.8851 9.47185C26.4985 8.93186 27.1076 8.41417 27.7692 7.94558C28.0452 7.75368 28.2993 7.57072 28.5841 7.37882C29.478 6.78973 29.1888 7.07089 30.1089 6.7094C30.9195 6.39701 31.6512 5.96411 32.4136 5.62494C32.694 5.49999 33.1234 5.24562 33.5133 5.29471C34.2713 5.37503 34.9286 6.13371 34.1574 7.11105C34.0435 7.26725 33.9252 7.42344 33.7718 7.52608C32.3347 8.52574 32.6546 8.39186 31.5504 9.72176C30.4682 11.016 27.7429 12.6716 26.3014 13.341L25.5477 13.6891C25.6529 13.9212 25.7581 14.1667 25.872 14.3987C26.1349 14.9209 26.5599 15.8893 26.6694 16.4561C26.8052 17.1879 26.7001 18.5312 26.3496 19.2363C26.1962 19.5264 25.7581 20.3119 25.5171 20.5082C24.8379 21.0661 24.0975 21.6061 23.3044 21.9318L22.1608 22.4004C21.8541 22.4852 21.4598 22.6325 21.1443 22.6771C20.5616 22.7664 20.0227 22.8467 19.4531 22.8601C18.8002 22.8601 18.327 22.7575 17.7092 22.5299C17.2886 22.2353 16.9337 22.0122 16.7453 21.5213C16.6445 21.2535 16.6138 21.0527 16.5481 20.7626C16.535 20.5529 16.5744 20.2985 16.627 20.1155C16.6796 19.9593 16.7321 19.8076 16.8022 19.6737C16.8943 19.5041 17.0126 19.3345 17.201 19.2542C17.4025 19.1694 17.6216 19.0891 17.8363 19.1337L18.0028 19.1605C18.3884 19.2408 18.4672 19.7094 18.5461 19.7585C21.933 21.7578 26.3802 15.8982 21.7271 14.8673C20.7018 14.6353 18.7126 14.9834 17.7399 15.568C17.3455 15.8045 16.9118 16.041 16.5569 16.3579C13.3759 19.1649 10.5717 24.4131 16.8242 25.81C17.8932 25.9796 18.9799 26.0688 20.0314 25.8859C21.0392 25.7163 21.784 25.1763 22.6384 24.6184C22.9583 24.4042 23.3088 24.1543 23.598 23.9535C24.4962 23.2975 25.3593 22.4718 26.1743 21.7355C26.5949 21.3562 26.8841 21.0259 27.2259 20.5662C27.3091 20.4725 27.388 20.3253 27.4668 20.1958C27.8261 19.638 27.9839 18.7767 28.5797 18.5268C28.9609 18.3661 29.2983 18.2545 29.6532 18.3349C29.7671 18.3616 29.8986 18.3572 29.995 18.4241C30.1001 18.4955 30.2316 18.5268 30.3017 18.6294C30.3893 18.7633 30.512 18.8793 30.5646 19.0266C30.6697 19.3568 30.7092 19.8968 30.5032 20.236C30.2447 20.6555 29.9906 21.0795 29.7233 21.5079C29.4955 21.9319 29.0004 22.6637 28.9522 23.1413C28.9171 23.4938 28.9434 23.8731 28.8295 24.2034C28.7287 24.5024 28.6805 24.8326 28.5184 25.1004C28.2949 25.4619 28.1109 25.8591 27.8437 26.1804C27.388 26.7338 26.9542 27.2782 26.3846 27.6977C25.7756 28.1529 25.1841 28.6394 24.5488 29.0589C24.299 29.224 24.0668 29.4203 23.8039 29.5587C23.5235 29.7149 23.1423 29.8979 22.8268 30.0005C21.7008 30.362 20.8595 30.5762 19.7598 30.6298C18.8309 30.6699 17.9108 30.7324 16.9863 30.6967C16.6489 30.6922 16.3772 30.5985 16.0968 30.5137C15.7069 30.3977 15.3739 30.2549 15.0277 30.0719C14.6422 29.8711 14.2259 29.7104 13.8403 29.5185C13.3628 29.2865 12.8194 29.099 12.4251 28.7375L11.7591 28.1172C11.7022 28.3984 11.7153 28.7509 11.654 28.8804C11.5181 29.1437 11.3955 29.398 11.2333 29.6078C10.9529 29.9514 10.4666 30.2906 10.081 30.478C9.4895 30.7859 8.71835 31.4821 8.22762 31.6696C7.31188 32.0087 6.72914 32.5175 5.70387 32.7585C4.93272 32.9459 3.20203 33.294 2.64995 33.8876C2.33887 34.2133 1.3837 34.5793 1.0288 34.4008C0.774669 34.2714 0.481106 34.1732 0.380331 33.9143C0.200689 33.419 -0.162976 32.7094 0.0823883 32.214C0.213834 31.9507 0.301466 31.7588 0.51616 31.558C0.757144 31.3349 1.04194 31.1251 1.32674 30.9957C1.5721 30.8752 1.83938 30.7458 2.03216 30.6342C2.26876 30.4959 2.45717 30.4245 2.61928 30.2192C2.80331 29.9827 3.00924 29.7238 3.15821 29.4739C3.93812 28.1663 5.1036 27.662 6.29976 26.7561C6.61522 26.5374 7.06214 26.3544 7.43457 26.1759C7.7588 26.0242 8.05236 25.9082 8.35907 25.743C8.55185 25.6359 9.18717 25.444 9.41063 25.4842L9.87507 25.569C9.77868 25.2834 9.66037 25.0156 9.60342 24.7255C9.35367 23.5072 9.5114 22.1773 9.94079 20.9947C8.74902 21.1776 3.80229 21.9185 2.67186 21.4945C2.46155 21.4097 2.16799 21.3517 1.97082 21.2535C1.15148 20.8429 0.634462 19.7273 0.83163 18.7544C0.8623 18.6071 0.897351 18.4777 0.949929 18.3483C1.04194 18.1474 1.16024 17.9555 1.30045 17.7815C1.44066 17.6298 1.61154 17.5494 1.80432 17.5003C2.25124 17.3977 2.89532 17.2683 3.14069 17.2236C3.41234 17.1746 3.81544 17.1433 3.96003 17.1433C4.2273 17.1389 4.49895 17.1389 4.76623 17.1299C5.27886 17.121 5.90104 17.0674 6.33919 17.0898C7.46962 17.1344 8.36783 17.1701 9.56398 17.0808C9.83126 17.063 10.9179 17.0585 11.1545 17.2058C11.207 17.2415 11.2684 17.2594 11.3078 17.3084L11.5357 17.5539C11.5138 17.0719 11.9169 16.3311 12.171 15.9652C12.2411 15.8714 12.355 15.7242 12.4689 15.6171L13.0341 15.0637C13.17 14.9343 13.4372 14.7156 13.595 14.546C13.779 14.372 13.9893 14.189 14.1865 14.0328C14.2785 13.9658 14.4757 13.8364 14.5896 13.8007L14.9182 13.6981C14.7824 13.5731 14.5677 13.533 14.4537 13.3723C14.3354 13.2116 14.261 13.4169 14.1032 13.466C13.9192 13.5329 13.7308 13.5865 13.5424 13.6133C13.4022 13.6311 13.1437 13.6088 13.021 13.5196C12.4777 13.1001 11.689 12.8457 11.2509 12.453C11.0406 12.2611 10.6988 11.971 10.5148 11.788C9.90136 11.1543 10.0898 10.4492 9.93203 9.65036C9.72172 8.57037 10.8828 7.84741 11.689 7.71352C13.963 7.31634 15.7331 13.0197 16.2589 12.694Z" fill="#FFA300"/>
<path fill-rule="evenodd" clip-rule="evenodd" d="M22.6735 26.6535L22.3974 27.4835C22.3098 27.7825 22.3668 28.0592 22.2529 28.3225C22.117 28.6438 21.9593 28.9696 21.9593 29.3266C21.9637 29.9559 21.876 30.603 21.9724 31.2278C22.0864 31.9507 22.1126 32.7094 22.3317 33.4145C22.4544 33.8296 22.4895 34.2848 22.7085 34.6596L23.0152 35.1862L23.2124 35.4094L23.3176 35.4897C23.4446 35.6147 23.6418 35.6861 23.7031 35.8646C23.8653 36.3242 23.8565 36.9133 24.1939 37.248C24.3122 37.3685 24.4086 37.5069 24.5444 37.5961C24.8379 37.7791 25.241 37.9799 25.6047 37.8594C26.1831 37.672 26.3583 37.73 26.4416 37.2257C26.573 36.4849 26.4153 36.2127 26.2094 35.5076C26.0516 34.9631 26.0735 34.9943 26.2094 34.5838C26.2576 34.4633 26.354 34.3472 26.3408 34.2178C26.2576 33.5796 26.1962 32.9816 26.0911 32.3569C25.9859 31.8883 25.8369 31.4331 25.7624 30.9779C25.6266 30.1924 25.5258 29.4025 25.3506 28.626C25.2761 28.2824 25.1315 27.9253 25.0044 27.604C24.8642 27.2247 24.7547 26.8186 24.505 26.5151C24.1457 26.0688 22.8487 26.1224 22.6735 26.6535Z" fill="#FFA300"/>
<path fill-rule="evenodd" clip-rule="evenodd" d="M26.4372 24.3997C28.4526 21.3294 32.2427 25.1718 34.3677 26.1893C34.6832 26.3411 34.9548 26.5508 35.2528 26.7249L35.7698 27.0149C36.3306 27.2916 36.8871 27.6129 36.7819 28.3984C36.7556 28.5947 36.6066 28.7777 36.4533 28.8804C36.1072 29.0946 35.4499 29.041 35.1169 28.8848C32.3128 27.5371 29.0354 27.9878 26.6518 25.3771C26.4415 25.154 26.275 24.6497 26.4372 24.3997Z" fill="#FFA300"/>
<path d="M113.042 34.8917C113.042 34.6953 113.13 34.5391 113.314 34.4365C113.489 34.3383 113.796 34.2803 114.225 34.2803C114.449 34.2803 114.611 34.2937 114.72 34.316V35.2755C114.444 35.4361 114.124 35.5209 113.756 35.5209C113.564 35.5209 113.393 35.4719 113.257 35.3692C113.112 35.271 113.042 35.1148 113.042 34.8917ZM111.333 34.9943C111.333 35.2889 111.386 35.5522 111.5 35.7798C111.609 36.0118 111.758 36.1948 111.938 36.3287C112.122 36.467 112.328 36.5697 112.543 36.6366C112.762 36.7036 112.985 36.7348 113.226 36.7348C113.879 36.7348 114.44 36.4938 114.904 36.0208C114.948 36.1636 115.005 36.2841 115.08 36.3822C115.154 36.4804 115.246 36.5518 115.351 36.592C115.448 36.6411 115.548 36.6634 115.645 36.6813C115.741 36.6991 115.851 36.708 115.973 36.708C116.162 36.708 116.381 36.6902 116.626 36.6455C116.872 36.6054 117.082 36.5563 117.253 36.4893V35.4585C117.082 35.4808 116.942 35.4942 116.819 35.4942C116.666 35.4942 116.552 35.4406 116.482 35.338C116.412 35.2353 116.376 35.0479 116.376 34.7801C116.376 34.7578 116.376 34.4365 116.381 33.834C116.385 33.2315 116.385 32.8477 116.385 32.6826C116.385 32.0534 116.263 31.5982 116.008 31.3036C115.851 31.1251 115.614 30.9823 115.312 30.8707C115.014 30.7681 114.563 30.7145 113.971 30.7145C113.704 30.7145 113.432 30.7458 113.13 30.8038C112.832 30.8618 112.578 30.9332 112.372 31.018C111.977 31.1921 111.776 31.4821 111.776 31.8793C111.776 32.1694 111.811 32.5175 111.89 32.9236H112.88C112.898 32.522 112.981 32.2631 113.121 32.1605C113.274 32.0445 113.515 31.9864 113.84 31.9864C114.181 31.9864 114.418 32.0534 114.541 32.1828C114.663 32.3211 114.725 32.5666 114.725 32.9191V33.2494C114.637 33.2315 114.466 33.2271 114.216 33.2271C113.515 33.2271 112.946 33.2985 112.516 33.4368C112.087 33.5752 111.78 33.7715 111.601 34.0259C111.421 34.2892 111.333 34.6061 111.333 34.9943ZM105.541 33.8876C105.541 34.7801 105.8 35.4808 106.325 35.9985C106.847 36.5206 107.517 36.7794 108.336 36.7794C108.766 36.7794 109.195 36.708 109.629 36.5518C110.058 36.4001 110.435 36.1993 110.755 35.9271L110.26 34.9319C109.717 35.2353 109.204 35.387 108.718 35.387C107.771 35.387 107.298 34.8426 107.298 33.7581C107.298 33.178 107.416 32.7451 107.657 32.464C107.898 32.1873 108.196 32.0489 108.564 32.0489C108.858 32.0489 109.064 32.098 109.173 32.1873C109.322 32.3078 109.41 32.5577 109.441 32.937H110.466C110.532 32.5443 110.567 32.1337 110.567 31.7053C110.567 31.4777 110.51 31.3036 110.391 31.1876C110.273 31.0671 110.085 30.9645 109.835 30.8886C109.471 30.7815 109.051 30.7279 108.582 30.7279C107.679 30.7279 106.943 31.0091 106.387 31.5669C105.826 32.1248 105.541 32.8968 105.541 33.8876ZM100.349 36.6143C100.708 36.5965 101.291 36.592 102.097 36.592C102.605 36.592 103.21 36.5965 103.915 36.6143V35.6325C103.412 35.6057 103.127 35.5477 103.048 35.4629C102.96 35.3647 102.912 35.1148 102.912 34.74V32.4059C103.105 32.2319 103.32 32.1471 103.543 32.1471C103.67 32.1471 103.771 32.1917 103.837 32.2721C103.902 32.3568 103.951 32.513 103.986 32.7451H104.998C105.081 32.1382 105.12 31.7276 105.12 31.5045C105.12 30.9957 104.857 30.7413 104.327 30.7413C104.069 30.7413 103.802 30.8172 103.539 30.9689C103.276 31.1251 103.057 31.317 102.89 31.5491C102.86 31.2546 102.772 31.0582 102.636 30.9422C102.5 30.8306 102.321 30.7726 102.119 30.7726C101.536 30.7726 100.94 30.9243 100.349 31.2278V32.1873C100.415 32.1828 100.515 32.1739 100.651 32.1739C100.905 32.1739 101.063 32.223 101.129 32.3211C101.195 32.4238 101.23 32.6648 101.23 33.0307V34.7623C101.23 35.1282 101.199 35.3469 101.133 35.4228C101.085 35.4718 101.011 35.5076 100.91 35.5343C100.813 35.5656 100.621 35.5879 100.353 35.6191V36.6143H100.349ZM95.9893 33.0039C96.02 32.6558 96.1339 32.397 96.3486 32.2363C96.5589 32.0757 96.8262 31.9954 97.1416 31.9954C97.444 31.9954 97.6762 32.0712 97.8383 32.223C97.996 32.3792 98.0749 32.5844 98.0749 32.8299V32.9549L95.9893 33.0039ZM94.2542 33.8742C94.2542 34.7578 94.5127 35.454 95.0385 35.9851C95.5599 36.5117 96.2434 36.775 97.0978 36.775C97.628 36.775 98.1362 36.6902 98.6094 36.5251C99.087 36.3644 99.4901 36.1323 99.8319 35.8556L99.3236 34.8471C98.6357 35.1996 98.0004 35.3737 97.4045 35.3737C96.9576 35.3737 96.6115 35.2621 96.3573 35.0256C96.1032 34.7935 95.9718 34.5168 95.9718 34.1866V34.0884H98.9074C99.1966 34.0884 99.4025 34.0259 99.512 33.901C99.6259 33.776 99.6785 33.535 99.6785 33.1824C99.6785 32.8299 99.6303 32.513 99.5383 32.2185C99.4507 31.9329 99.3061 31.674 99.1221 31.4464C98.9293 31.2188 98.6752 31.0359 98.3553 30.9109C98.0311 30.7904 97.6586 30.7235 97.238 30.7235C96.3486 30.7235 95.63 31.0002 95.0779 31.5491C94.5303 32.1069 94.2542 32.879 94.2542 33.8742ZM88.5101 33.8876C88.5101 34.7801 88.7686 35.4808 89.2943 35.9985C89.8158 36.5206 90.4861 36.7794 91.3055 36.7794C91.7349 36.7794 92.1642 36.708 92.598 36.5518C93.0274 36.4001 93.4042 36.1993 93.7241 35.9271L93.2289 34.9319C92.6856 35.2353 92.173 35.387 91.6867 35.387C90.7402 35.387 90.267 34.8426 90.267 33.7581C90.267 33.178 90.3853 32.7451 90.6263 32.464C90.8673 32.1873 91.1652 32.0489 91.5333 32.0489C91.8269 32.0489 92.0328 32.098 92.1423 32.1873C92.2913 32.3078 92.3789 32.5577 92.4096 32.937H93.4349C93.5006 32.5443 93.5357 32.1337 93.5357 31.7053C93.5357 31.4777 93.4787 31.3036 93.3604 31.1876C93.2421 31.0671 93.0537 30.9645 92.8039 30.8886C92.4403 30.7815 92.0196 30.7279 91.5508 30.7279C90.6482 30.7279 89.9121 31.0091 89.3557 31.5669C88.7948 32.1248 88.5101 32.8968 88.5101 33.8876ZM81.3331 33.0039C81.3638 32.6558 81.4777 32.397 81.6924 32.2363C81.9027 32.0757 82.17 31.9954 82.4855 31.9954C82.7878 31.9954 83.02 32.0712 83.1821 32.223C83.3399 32.3792 83.4187 32.5844 83.4187 32.8299V32.9549L81.3331 33.0039ZM79.5981 33.8742C79.5981 34.7578 79.8566 35.454 80.3823 35.9851C80.9037 36.5117 81.5873 36.775 82.4417 36.775C82.9718 36.775 83.4801 36.6902 83.9533 36.5251C84.4309 36.3644 84.834 36.1323 85.1757 35.8556L84.6675 34.8471C83.9796 35.1996 83.3443 35.3737 82.7484 35.3737C82.3015 35.3737 81.9553 35.2621 81.7012 35.0256C81.4471 34.7935 81.3156 34.5168 81.3156 34.1866V34.0884H84.2512C84.5404 34.0884 84.7463 34.0259 84.8559 33.901C84.9698 33.776 85.0224 33.535 85.0224 33.1824C85.0224 32.8299 84.9742 32.513 84.8822 32.2185C84.7945 31.9329 84.6499 31.674 84.4659 31.4464C84.2731 31.2188 84.019 31.0359 83.6992 30.9109C83.3749 30.7904 83.0025 30.7235 82.5819 30.7235C81.6924 30.7235 80.9739 31.0002 80.4218 31.5491C79.8741 32.1069 79.5981 32.879 79.5981 33.8742ZM74.406 36.6143C74.7652 36.5965 75.348 36.592 76.1542 36.592C76.6624 36.592 77.2671 36.5965 77.9725 36.6143V35.6325C77.4686 35.6057 77.1838 35.5477 77.105 35.4629C77.0173 35.3647 76.9692 35.1148 76.9692 34.74V32.4059C77.1619 32.2319 77.3766 32.1471 77.6001 32.1471C77.7272 32.1471 77.8279 32.1917 77.8936 32.2721C77.9594 32.3568 78.0076 32.513 78.0426 32.7451H79.0547C79.138 32.1382 79.1774 31.7276 79.1774 31.5045C79.1774 30.9957 78.9145 30.7413 78.3844 30.7413C78.1259 30.7413 77.8586 30.8172 77.5957 30.9689C77.3328 31.1251 77.1137 31.317 76.9472 31.5491C76.9166 31.2546 76.8289 31.0582 76.6931 30.9422C76.5573 30.8306 76.3776 30.7726 76.1761 30.7726C75.5934 30.7726 74.9975 30.9243 74.406 31.2278V32.1873C74.4717 32.1828 74.5725 32.1739 74.7083 32.1739C74.9624 32.1739 75.1201 32.223 75.1859 32.3211C75.2516 32.4238 75.2867 32.6648 75.2867 33.0307V34.7623C75.2867 35.1282 75.256 35.3469 75.1903 35.4228C75.1421 35.4718 75.0676 35.5076 74.9668 35.5343C74.8704 35.5656 74.6776 35.5879 74.4104 35.6191V36.6143H74.406ZM69.6652 32.4773C69.8229 32.3792 70.0025 32.2944 70.1953 32.2274C70.3881 32.1694 70.5765 32.1382 70.7605 32.1382C71.5492 32.1382 71.9436 32.6737 71.9436 33.7448C71.9436 34.2312 71.8296 34.6195 71.6149 34.9006C71.3915 35.1818 71.0541 35.3246 70.616 35.3246C70.2304 35.3246 69.9193 35.28 69.6695 35.2041V32.4773H69.6652ZM67.1107 39.8186C68.0528 39.8007 68.6706 39.7918 68.9641 39.7918C69.2884 39.7918 69.9061 39.8007 70.8306 39.8186V38.8502C70.4714 38.8234 70.226 38.8011 70.0902 38.7743C69.9543 38.7431 69.8667 38.694 69.8185 38.6404C69.7659 38.569 69.7221 38.4708 69.7046 38.3592C69.6871 38.2388 69.6783 38.0424 69.6783 37.7702V36.6277C70.1077 36.6812 70.3969 36.7125 70.5415 36.7125C71.5843 36.7125 72.3773 36.4224 72.9294 35.8512C73.4815 35.2755 73.7575 34.5168 73.7575 33.5752C73.7575 33.1601 73.7137 32.7853 73.6392 32.4416C73.556 32.1069 73.4333 31.8035 73.2624 31.5402C73.0915 31.2813 72.8637 31.0805 72.5789 30.9377C72.2897 30.7993 71.9523 30.7279 71.5711 30.7279C71.1987 30.7279 70.8482 30.8038 70.5196 30.9689C70.1822 31.1296 69.893 31.3304 69.6476 31.5759C69.6301 31.2724 69.5469 31.0582 69.411 30.9511C69.2752 30.844 69.0956 30.7904 68.8634 30.7904C68.285 30.7904 67.6979 30.9421 67.102 31.2456V32.2051C67.1765 32.2007 67.2729 32.1917 67.4043 32.1917C67.5796 32.1917 67.711 32.2185 67.7986 32.2765C67.9126 32.3658 67.9695 32.6246 67.9695 33.0486V37.9308V38.2789C67.9695 38.3414 67.9564 38.4173 67.9389 38.5065C67.9169 38.5958 67.8907 38.6493 67.8687 38.6672C67.8425 38.685 67.7943 38.7163 67.7154 38.752C67.6409 38.7877 67.562 38.81 67.4788 38.8189C67.3912 38.8234 67.2641 38.8368 67.102 38.8546V39.8186H67.1107ZM56.3366 36.6143C56.6959 36.5965 57.2918 36.592 58.1067 36.592C58.3652 36.592 58.856 36.5965 59.5789 36.6143V35.6325C59.3993 35.6147 59.2722 35.5968 59.1977 35.5745C59.1232 35.5522 59.0619 35.5165 59.0137 35.4674C58.9392 35.3915 58.8998 35.155 58.8998 34.7667V32.4595C59.2635 32.2988 59.5964 32.214 59.89 32.214C60.2361 32.214 60.4552 32.281 60.556 32.4149C60.6524 32.5532 60.6962 32.8344 60.6962 33.2539V34.7533C60.6962 35.155 60.6655 35.3826 60.613 35.4361C60.5691 35.4897 60.5122 35.5254 60.4289 35.5566C60.3457 35.5879 60.2055 35.6102 60.0127 35.6325V36.6143C60.7181 36.5965 61.279 36.592 61.6952 36.592C61.9625 36.592 62.4313 36.5965 63.106 36.6143V35.6325C62.8826 35.6102 62.7248 35.579 62.6372 35.5432C62.5496 35.5075 62.4839 35.4585 62.4532 35.4004C62.4094 35.3246 62.3962 35.1148 62.3962 34.7757V32.821C62.3962 32.7362 62.3919 32.6202 62.3699 32.455C62.7468 32.2944 63.0798 32.2096 63.3689 32.2096C63.7107 32.2096 63.9341 32.281 64.0349 32.4238C64.1357 32.5711 64.1883 32.8478 64.1883 33.2494V34.7489C64.1883 35.1148 64.1532 35.3424 64.0831 35.4317C63.9955 35.5343 63.8071 35.6013 63.5267 35.628V36.6099C64.2321 36.592 64.7842 36.5875 65.1873 36.5875C65.5509 36.5875 66.0811 36.592 66.769 36.6099V35.628C66.471 35.5923 66.2695 35.5566 66.16 35.5209C66.046 35.4897 65.9759 35.4451 65.9453 35.3826C65.8971 35.3067 65.8752 35.1014 65.8752 34.7712V32.7987C65.8752 31.982 65.7393 31.4375 65.4633 31.1564C65.2048 30.8931 64.8236 30.7636 64.311 30.7636C63.9648 30.7636 63.6055 30.8484 63.2287 31.0136C62.8432 31.1831 62.5277 31.4018 62.2648 31.683C62.0808 31.0671 61.6163 30.7592 60.8671 30.7592C60.521 30.7592 60.1617 30.8351 59.8024 30.9912C59.4387 31.1519 59.132 31.3617 58.891 31.6294C58.8647 31.3126 58.7859 31.0894 58.65 30.9645C58.5142 30.8395 58.3346 30.777 58.1111 30.777C57.5284 30.777 56.9325 30.9288 56.341 31.2322V32.1917C56.4067 32.1873 56.5075 32.1783 56.6433 32.1783C56.8974 32.1783 57.0552 32.2274 57.1209 32.3256C57.1866 32.4283 57.2217 32.6692 57.2217 33.0352V34.7667C57.2217 35.1327 57.191 35.3514 57.1253 35.4272C57.0771 35.4763 57.0026 35.512 56.9018 35.5388C56.8054 35.57 56.6126 35.5923 56.3454 35.6236V36.6143H56.3366ZM51.977 33.0039C52.0077 32.6558 52.1216 32.397 52.3363 32.2363C52.5466 32.0757 52.8139 31.9954 53.1293 31.9954C53.4317 31.9954 53.6639 32.0712 53.826 32.223C53.9837 32.3792 54.0626 32.5844 54.0626 32.8299V32.9549L51.977 33.0039ZM50.2419 33.8742C50.2419 34.7578 50.5004 35.454 51.0262 35.9851C51.5476 36.5117 52.2311 36.775 53.0855 36.775C53.6157 36.775 54.1239 36.6902 54.5971 36.5251C55.0747 36.3644 55.4778 36.1323 55.8196 35.8556L55.3113 34.8471C54.6234 35.1996 53.9881 35.3737 53.3922 35.3737C52.9453 35.3737 52.5992 35.2621 52.345 35.0256C52.0909 34.7935 51.9595 34.5168 51.9595 34.1866V34.0884H54.8951C55.1843 34.0884 55.3902 34.0259 55.4997 33.901C55.6137 33.776 55.6662 33.535 55.6662 33.1824C55.6662 32.8299 55.618 32.513 55.526 32.2185C55.4384 31.9329 55.2938 31.674 55.1098 31.4464C54.917 31.2188 54.6629 31.0359 54.343 30.9109C54.0188 30.7904 53.6464 30.7235 53.2257 30.7235C52.3363 30.7235 51.6177 31.0002 51.0656 31.5491C50.518 32.1069 50.2419 32.879 50.2419 33.8742ZM46.7455 28.7822C46.7455 29.0633 46.8331 29.2999 47.0084 29.4962C47.1792 29.6926 47.4071 29.7908 47.6963 29.7908C48.0073 29.7908 48.2527 29.6926 48.4367 29.4962C48.6208 29.2999 48.7084 29.0544 48.7084 28.7599C48.7084 28.4653 48.6339 28.2243 48.4718 28.0458C48.3097 27.8673 48.0643 27.7781 47.7269 27.7781C47.4377 27.7781 47.1968 27.8718 47.0171 28.0592C46.8375 28.2467 46.7455 28.4876 46.7455 28.7822ZM46.1671 36.6143C46.5264 36.5965 47.1091 36.592 47.9153 36.592C48.3491 36.592 48.9143 36.5965 49.6066 36.6143V35.6325C49.1641 35.5968 48.9099 35.5388 48.8486 35.4495C48.7741 35.3603 48.7347 35.1327 48.7347 34.7667C48.7347 34.4186 48.7391 33.8965 48.761 33.2003C48.7785 32.513 48.7829 32.0266 48.7829 31.7544C48.7829 31.3884 48.7128 31.1296 48.5682 30.9957C48.4192 30.8574 48.222 30.786 47.9679 30.786C47.3676 30.786 46.7674 30.9377 46.1715 31.2412V32.2007C46.2372 32.1962 46.338 32.1873 46.4738 32.1873C46.7279 32.1873 46.8857 32.2363 46.9514 32.3345C47.0171 32.4372 47.0522 32.6782 47.0522 33.0441V34.7757C47.0522 35.1416 47.0215 35.3603 46.9558 35.4361C46.9076 35.4852 46.8331 35.5209 46.7323 35.5477C46.6359 35.579 46.4431 35.6013 46.1759 35.6325V36.6143H46.1671ZM40.6595 35.4228C40.6595 35.695 40.7165 35.9315 40.8304 36.1323C40.94 36.3287 41.1415 36.476 41.4395 36.5786C41.8119 36.7125 42.2982 36.775 42.9116 36.775C43.6653 36.775 44.2831 36.6188 44.765 36.2975C45.247 35.9806 45.488 35.5254 45.488 34.9319C45.488 34.5124 45.3872 34.1732 45.1813 33.9233C44.9753 33.6734 44.5766 33.4368 43.9807 33.2182L42.8634 32.7987C42.6969 32.7362 42.583 32.6782 42.5173 32.6112C42.4516 32.5532 42.4209 32.4684 42.4209 32.3658C42.4209 32.0891 42.6444 31.9507 43.0913 31.9507C43.49 31.9507 43.7704 32.0043 43.9369 32.1203C44.0245 32.1783 44.0903 32.2587 44.1428 32.3524C44.191 32.4506 44.2305 32.6112 44.2612 32.8299H45.155C45.2207 32.455 45.2514 32.0935 45.2514 31.741C45.2514 31.3884 45.1155 31.1341 44.8395 30.9912C44.4802 30.8127 43.9807 30.719 43.3323 30.719C42.5042 30.719 41.8645 30.8931 41.4263 31.2367C40.9794 31.5803 40.7559 32.0177 40.7559 32.5398C40.7559 32.7406 40.7735 32.9147 40.8129 33.062C40.848 33.2092 40.9181 33.3565 41.0232 33.5038C41.124 33.6555 41.2773 33.7849 41.4833 33.9143C41.6804 34.0393 41.9433 34.1643 42.2588 34.2847L43.3673 34.7042C43.5251 34.7578 43.6346 34.8203 43.6959 34.8783C43.7573 34.9452 43.7836 35.0256 43.7836 35.1416C43.7836 35.4094 43.5251 35.5477 43.0037 35.5477C42.5392 35.5477 42.1975 35.4495 41.9784 35.2532C41.7856 35.0925 41.6629 34.8203 41.606 34.432H40.699C40.6771 34.6284 40.6595 34.9586 40.6595 35.4228Z" fill="white"/>
<path d="M67.9388 24.1543V21.9051C68.412 21.856 68.8765 21.8247 69.3322 21.7533C69.9762 21.6596 70.1953 21.4142 70.2128 20.7269C70.2391 19.7183 70.2348 18.7097 70.2348 17.6967C70.2348 14.7424 70.2348 11.788 70.2172 8.82921C70.2128 7.77154 69.9806 7.5484 68.9597 7.48592C68.6224 7.46361 68.2894 7.43237 67.9388 7.4056V5.20546C68.0396 5.19654 68.1448 5.16976 68.2499 5.17422C71.1461 5.201 74.0467 5.17422 76.9385 5.28579C78.2792 5.33934 79.6462 5.54017 80.9432 5.90165C83.4976 6.61569 85.0618 8.44542 85.6445 11.1454C86.2229 13.8186 86.1966 16.4918 85.1932 19.0578C84.3082 21.3294 82.6257 22.7262 80.413 23.4313C78.8181 23.9401 77.1751 24.1141 75.5232 24.1365C73.0915 24.1677 70.6641 24.1498 68.2324 24.1498C68.1492 24.1543 68.0659 24.1543 67.9388 24.1543ZM74.3665 8.39633C74.3534 8.49451 74.3358 8.54806 74.3358 8.60608C74.3358 12.3726 74.3315 16.1437 74.3402 19.9102C74.3402 20.6243 74.5856 20.9411 75.2954 21.0081C76.049 21.0795 76.8202 21.1062 77.5694 21.017C79.2957 20.8162 80.5751 19.9013 81.1316 18.1251C81.8063 15.9607 81.8195 13.7472 81.2411 11.556C80.8293 9.99399 79.8259 9.03896 78.3186 8.67302C77.0261 8.36062 75.716 8.35616 74.3665 8.39633Z" fill="white"/>
<path d="M39.7307 24.3328V22.0925C40.1338 22.0434 40.5238 21.9988 40.9137 21.9497C41.8382 21.8292 42.0091 21.6552 42.0135 20.6867C42.0266 17.362 42.0222 14.0328 42.0222 10.708C42.0222 10.0699 42.0222 9.43168 42.0047 8.79351C41.9872 8.20442 41.8338 7.99022 41.2862 7.86973C40.7779 7.75816 40.2609 7.69121 39.7307 7.59749V5.40181C39.8578 5.39735 39.9673 5.38397 40.0768 5.38397C44.1604 5.38397 48.244 5.3795 52.3276 5.39289C52.7307 5.39289 53.1469 5.45538 53.5325 5.58033C54.1196 5.76777 54.4132 6.20511 54.3825 6.85667C54.3255 8.09732 54.2291 9.34243 54.1459 10.6411C53.401 10.6411 52.6956 10.65 51.9946 10.6277C51.9113 10.6232 51.7974 10.4581 51.7623 10.3421C51.6528 9.96275 51.5871 9.56556 51.4732 9.18176C51.3417 8.73995 51.0657 8.41418 50.6012 8.39186C49.1247 8.32492 47.6481 8.28475 46.1452 8.23566V13.3544C46.9252 13.3009 47.6832 13.2875 48.4324 13.1938C48.9669 13.1268 49.1597 12.6449 49.3087 12.1629C49.5628 11.3194 49.5672 11.3194 50.426 11.3194H51.5038V18.0716C50.9123 18.0716 50.334 18.0805 49.76 18.0582C49.6855 18.0537 49.576 17.902 49.5541 17.8038C49.1948 16.224 49.0414 16.0856 47.4991 16.0723C47.0654 16.0678 46.6272 16.0723 46.1672 16.0723C46.1496 16.1838 46.1277 16.2686 46.1277 16.3534C46.1277 17.661 46.1146 18.9686 46.1321 20.2717C46.1452 21.191 46.3293 21.4588 47.1793 21.4811C48.4455 21.5168 49.7206 21.4945 50.9824 21.4052C51.9507 21.3383 52.6343 20.7894 52.9234 19.763C53.0286 19.397 53.0899 18.9061 53.3353 18.7276C53.5851 18.5446 54.0451 18.674 54.4088 18.6696C54.7155 18.6651 55.0266 18.6696 55.4121 18.6696C55.3377 19.7094 55.2763 20.7091 55.1799 21.7043C55.1361 22.1595 55.0353 22.6102 54.9565 23.0609C54.8645 23.5608 54.5665 23.8999 54.124 24.0383C53.642 24.19 53.1381 24.3507 52.643 24.3507C48.4017 24.3774 44.1648 24.3685 39.9235 24.3685C39.8709 24.3551 39.8183 24.3462 39.7307 24.3328Z" fill="white"/>
<path d="M134.52 11.5069C134.455 10.1993 134.42 8.97203 134.319 7.75369C134.275 7.26279 133.951 7.03519 133.46 6.99502C133.18 6.97271 132.899 6.99057 132.553 6.99057C132.553 6.33454 132.54 5.67405 132.566 5.01356C132.571 4.91984 132.728 4.79935 132.838 4.74134C133.99 4.1701 135.204 3.87556 136.475 3.84879C137.605 3.82647 138.196 4.41555 138.245 5.61603C138.267 6.16495 138.253 6.71387 138.249 7.26279C138.231 11.4622 138.218 15.6662 138.201 19.8656C138.201 19.9995 138.201 20.1334 138.201 20.2673C138.205 21.5972 138.516 21.8962 139.774 21.7801C139.883 21.7712 139.993 21.7801 140.146 21.7801C140.146 22.4986 140.155 23.1904 140.137 23.8821C140.133 23.9803 140.019 24.1275 139.932 24.1543C138.911 24.4622 137.872 24.672 136.803 24.5783C135.87 24.4979 135.208 24.0472 135.015 23.1457C134.275 23.5697 133.583 24.132 132.803 24.3819C129.775 25.3593 125.806 24.0383 125.267 19.3167C125.118 18.0002 125.223 16.7104 125.578 15.443C126.279 12.9483 128.176 11.3417 130.647 11.0651C131.931 10.9312 133.18 11.0026 134.52 11.5069ZM134.463 17.719V15.8491C134.463 14.2693 134.468 14.2381 132.956 14.0596C131.12 13.8454 129.613 14.5772 129.219 16.6926C128.995 17.902 129.035 19.1025 129.661 20.1825C130.538 21.6953 132.737 22.0836 134.192 21.0036C134.332 20.901 134.45 20.6555 134.455 20.477C134.477 19.5577 134.463 18.6383 134.463 17.719Z" fill="white"/>
<path d="M124.627 21.7667C124.627 22.5165 124.636 23.2261 124.618 23.9312C124.618 24.0115 124.509 24.1409 124.425 24.1632C123.404 24.4801 122.366 24.6765 121.297 24.5783C120.39 24.4935 119.715 24.0651 119.444 23.052C119.198 23.2573 118.992 23.4537 118.764 23.6143C117.134 24.7836 115.399 25.0022 113.585 24.1677C112.17 23.5161 111.447 22.1416 111.539 20.4145C111.623 18.7856 112.376 17.7726 113.91 17.2147C115.378 16.6837 116.902 16.6614 118.427 16.6747C118.607 16.6747 118.791 16.6747 118.97 16.6747C119.303 15.0771 118.87 14.1131 117.713 13.8721C115.982 13.5151 115.198 14.0863 114.913 15.9384H112.757C112.608 15.0057 112.42 14.0685 112.56 13.1045C112.67 12.3548 113.143 11.8862 113.778 11.6318C115.855 10.8152 117.993 10.659 120.145 11.2213C121.783 11.6497 122.607 12.7431 122.664 14.5639C122.721 16.3445 122.677 18.1251 122.686 19.9058C122.686 20.2583 122.703 20.6198 122.76 20.9679C122.861 21.6016 123.177 21.8515 123.794 21.8203C124.057 21.8158 124.32 21.7891 124.627 21.7667ZM119.027 19.1248C118.068 19.0311 117.17 18.9909 116.289 19.2587C115.61 19.464 115.277 19.9102 115.316 20.5172C115.36 21.2401 115.776 21.7534 116.46 21.8426C117.27 21.9497 118.063 21.8158 118.799 21.432C118.9 21.3785 119.019 21.2267 119.019 21.1196C119.036 20.4725 119.027 19.821 119.027 19.1248Z" fill="white"/>
<path d="M93.3736 24.5649C92.2607 24.5292 91.1784 24.373 90.1531 23.8999C88.624 23.1993 87.6119 22.0077 87.1168 20.3476C86.5559 18.4777 86.5384 16.5944 87.2526 14.7736C88.1946 12.3637 90.0305 11.1632 92.414 10.8017C93.6715 10.6098 94.9246 10.6902 96.1427 11.074C98.1187 11.6988 99.3675 13.0733 99.8757 15.1708C100.257 16.7551 100.257 18.3527 99.8056 19.9147C99.0564 22.5209 97.3125 23.9535 94.8063 24.4221C94.3331 24.5069 93.8511 24.5202 93.3736 24.5649ZM96.3004 17.7859C96.2391 17.1567 96.2128 16.6212 96.1295 16.099C95.9017 14.6442 95.0692 13.8453 93.7197 13.7427C92.3045 13.64 91.3011 14.3005 90.8805 15.6661C90.4949 16.9157 90.5475 18.1876 90.8629 19.4416C91.2135 20.8429 92.0372 21.4945 93.4086 21.5034C94.8151 21.5124 95.6739 20.8831 96.0419 19.4907C96.1909 18.915 96.2259 18.2992 96.3004 17.7859Z" fill="white"/>
<path d="M147.235 24.7657C146.109 24.7345 145.014 24.5693 143.976 24.0918C142.512 23.4135 141.513 22.2755 141.005 20.6912C140.413 18.8526 140.374 16.9782 141.031 15.1529C141.934 12.6449 143.792 11.3819 146.245 11.0026C147.503 10.8062 148.751 10.8865 149.974 11.2703C151.968 11.8951 153.221 13.2786 153.729 15.3984C154.101 16.9693 154.101 18.5491 153.659 20.1021C152.914 22.7084 151.174 24.1498 148.668 24.6229C148.195 24.7077 147.713 24.7211 147.235 24.7657ZM150.149 18.0091C150.083 17.3531 150.057 16.8175 149.974 16.2909C149.746 14.8539 148.935 14.064 147.599 13.948C146.184 13.823 145.145 14.4969 144.725 15.8804C144.339 17.1433 144.396 18.4286 144.725 19.696C145.071 21.0438 145.89 21.6864 147.222 21.7043C148.62 21.7266 149.496 21.1152 149.864 19.7719C150.031 19.1694 150.07 18.5223 150.149 18.0091Z" fill="white"/>
<path d="M63.9517 22.1684V24.3462H56.4374V22.1595C56.8536 22.088 57.2567 22.0256 57.6554 21.9408C58.0498 21.856 58.2645 21.5971 58.2776 21.1643C58.282 20.9857 58.2951 20.8072 58.2951 20.6287C58.2908 16.6926 58.2864 12.7609 58.2776 8.82474C58.2776 8.60161 58.2513 8.37847 58.2207 8.1598C58.0804 7.17799 57.8263 6.95931 56.8799 6.98162C56.7397 6.98609 56.5995 6.99947 56.3979 7.0084C56.3979 6.34345 56.3892 5.68297 56.4067 5.01802C56.4111 4.92876 56.5425 4.80826 56.6389 4.76363C57.8 4.23257 58.9962 3.86663 60.2756 3.84878C61.4761 3.83092 62.0457 4.3843 62.0852 5.65619C62.1114 6.49965 62.0939 7.34757 62.0939 8.19549C62.0895 12.145 62.0852 16.0946 62.0895 20.0441C62.0895 20.4725 62.1334 20.901 62.1859 21.3249C62.2297 21.6686 62.4313 21.8872 62.7599 21.9542C63.1455 22.03 63.5354 22.0925 63.9517 22.1684Z" fill="white"/>
<path d="M106.632 12.7654C107.346 11.8862 108.157 11.2569 109.195 11.0517C109.537 10.9847 109.901 10.9669 110.247 11.0115C111.049 11.1141 111.535 11.6541 111.526 12.511C111.513 13.5106 111.399 14.5103 111.329 15.5189H109.051C109.007 15.3314 108.972 15.1619 108.924 14.9923C108.713 14.2559 108.35 14.0417 107.648 14.2336C107.552 14.2604 107.46 14.2916 107.368 14.3273C106.711 14.5906 106.649 14.6799 106.654 15.4162C106.667 17.2281 106.663 19.0355 106.706 20.8429C106.728 21.731 106.965 21.9363 107.811 22.039C108.148 22.0791 108.485 22.1148 108.849 22.155V24.3373H100.993V22.1595C101.339 22.097 101.698 22.0479 102.053 21.972C102.711 21.8337 102.868 21.6596 102.886 20.959C102.912 19.696 102.912 18.4375 102.908 17.1746C102.908 16.523 102.921 15.867 102.846 15.2199C102.763 14.4924 102.544 14.3229 101.847 14.2782C101.567 14.2604 101.287 14.2738 100.958 14.2738C100.958 13.5776 100.949 12.9171 100.971 12.2521C100.975 12.154 101.116 12.0201 101.225 11.9665C102.36 11.4042 103.547 11.0695 104.814 11.0561C105.852 11.0472 106.338 11.4578 106.553 12.5288C106.566 12.5913 106.593 12.6404 106.632 12.7654Z" fill="white"/>
</svg>
